<?xml version="1.0" encoding="UTF-8" standalone="no"?>
<!-- Created with Inkscape (http://www.inkscape.org/) -->

<svg
   width="210mm"
   height="297mm"
   viewBox="0 0 210 297"
   version="1.1"
   id="svg1"
   xml:space="preserve"
   sodipodi:docname="mapa3.svg"
   inkscape:version="1.4.2 (f4327f4, 2025-05-13)"
   xmlns:inkscape="http://www.inkscape.org/namespaces/inkscape"
   xmlns:sodipodi="http://sodipodi.sourceforge.net/DTD/sodipodi-0.dtd"
   xmlns="http://www.w3.org/2000/svg"
   xmlns:svg="http://www.w3.org/2000/svg"><sodipodi:namedview
     id="namedview1"
     pagecolor="#ffffff"
     bordercolor="#000000"
     borderopacity="0.25"
     inkscape:showpageshadow="2"
     inkscape:pageopacity="0.0"
     inkscape:pagecheckerboard="0"
     inkscape:deskcolor="#d1d1d1"
     inkscape:document-units="mm"
     inkscape:zoom="2.0334082"
     inkscape:cx="357.77372"
     inkscape:cy="279.57988"
     inkscape:window-width="1920"
     inkscape:window-height="1009"
     inkscape:window-x="1358"
     inkscape:window-y="-8"
     inkscape:window-maximized="1"
     inkscape:current-layer="layer1" /><defs
     id="defs1" /><g
     inkscape:label="Capa 1"
     inkscape:groupmode="layer"
     id="layer1"><ellipse
       style="fill:none;stroke-width:0.264583"
       id="serpiente"
       cx="143.78056"
       cy="112.61727"
       rx="1.301"
       ry="0.97588623" /><path
       style="fill:#000000"
       d="m 43.227875,113.11741 0.143163,-16.629481 -9.037043,-0.0584 -9.037041,-0.0584 -0.06048,-11.69531 c -0.04319,-8.35148 0.01397,-11.78107 0.199918,-11.99528 0.210255,-0.24221 2.01277,-0.29715 9.36136,-0.28529 5.005532,0.008 9.130019,-0.019 9.165526,-0.0602 0.09869,-0.11447 2.828208,-5.13314 5.565311,-10.23274 3.440095,-6.40937 3.528811,-6.56744 3.783822,-6.74196 0.1438,-0.0984 0.210641,-3.80522 0.180859,-10.02995 -0.03303,-6.90337 0.02989,-9.96271 0.209129,-10.1692 0.175298,-0.20194 0.874987,-0.29533 2.21259,-0.29533 h 1.956219 v -0.45951 -0.4595 l 9.388277,0.0688 9.388277,0.0688 0.136482,0.55813 0.136481,0.55812 1.391705,0.11163 1.391705,0.11162 0.06097,9.20905 0.06097,9.20904 0.406048,0.034 c 0.223326,0.0187 0.511125,0.0573 0.639554,0.0859 0.128429,0.0285 0.364855,0.0634 0.525391,0.0776 0.160537,0.0142 0.291884,0.17644 0.291884,0.36062 0,0.28296 0.552075,0.33512 3.560986,0.33646 1.958542,8.8e-4 4.254421,0.0642 5.101954,0.14077 l 1.54097,0.13918 0.130097,-0.47564 c 0.176737,-0.64616 1.332326,-0.6685 1.507204,-0.0291 l 0.122127,0.4465 h 5.45197 5.45197 l 0.25752,-0.46005 c 0.3815,-0.68153 1.25617,-0.49203 1.3506,0.29261 l 0.0739,0.61394 h 5.6899 5.68991 l 0.0739,-0.61394 c 0.096,-0.79791 1.08799,-1.01951 1.28814,-0.28776 l 0.12941,0.47312 5.68732,-0.0614 c 4.32264,-0.0467 5.71451,-0.12918 5.80067,-0.34384 0.0706,-0.17596 0.55626,-0.28243 1.28822,-0.28243 h 1.17486 v 0.893 0.89299 h -0.67264 -0.67265 l -0.0273,7.75793 c -0.015,4.26685 -0.0928,8.42761 -0.17287,9.24613 -0.10175,1.03995 -0.0496,1.69558 0.17314,2.17668 l 0.31875,0.68847 h 5.78068 c 4.78539,0 5.78068,-0.0535 5.78068,-0.31098 0,-0.17105 0.15762,-0.36882 0.35026,-0.4395 0.48025,-0.17619 1.05078,0.0624 1.05078,0.4395 0,0.25748 0.99962,0.31098 5.81045,0.31098 h 5.81045 l 0.12212,-0.44649 c 0.16369,-0.59844 1.10204,-0.59844 1.26573,0 l 0.12213,0.44649 h 4.74806 c 3.58678,0 4.79373,-0.0694 4.93479,-0.28376 0.10271,-0.15607 0.47792,-0.40604 0.83382,-0.55549 l 0.64708,-0.27172 -0.0633,-9.47938 -0.0633,-9.47937 0.40864,-0.10209 0.40864,-0.10209 0.0102,7.96027 c 0.006,4.37815 0.0319,11.37599 0.0584,15.55075 l 0.0482,7.59049 1.47836,0.0669 c 1.26078,0.0571 1.43699,0.11459 1.19732,0.39069 -0.22588,0.26021 -0.20668,0.32375 0.0978,0.32375 0.20836,0 0.37885,-0.15069 0.37885,-0.33487 0,-0.24806 0.27242,-0.33488 1.05078,-0.33488 h 1.05078 v 0.55813 0.55812 h -2.54359 c -1.82659,0 -2.57141,0.0787 -2.64227,0.27906 -0.0543,0.15349 -0.0918,2.17867 -0.0834,4.50042 l 0.0153,4.22135 -31.78726,-0.15398 c -17.483,-0.0847 -32.22022,-0.0878 -32.74939,-0.007 l -0.96213,0.14709 v 1.61793 1.617931 l 0.70052,0.13395 c 0.41087,0.0786 0.70052,0.27472 0.70052,0.47441 0,0.2798 -0.37314,0.34045 -2.09453,0.34045 h -2.09453 l 0.51836,0.76195 c 0.28509,0.41908 1.10442,1.64974 1.82072,2.73481 3.24367,4.91357 6.41628,9.6667 7.20289,10.79121 l 0.85891,1.22788 3.83529,0.0616 c 2.10941,0.0339 3.93765,0.15945 4.06276,0.27906 0.34313,0.32806 12.04294,0.29007 12.04294,-0.0391 0,-0.32551 13.4971,-0.0581 13.91784,0.27575 0.17407,0.13811 2.42829,0.17476 6.08066,0.0988 3.19223,-0.0663 8.82505,-0.17325 12.51739,-0.23755 3.69233,-0.0643 6.73618,-0.13906 6.76411,-0.16613 0.0279,-0.0271 0.10674,-3.56539 0.17513,-7.86295 l 0.12435,-7.81373 h 0.46702 0.46701 l 0.0613,7.98117 0.0613,7.98117 0.52244,0.0242 c 2.06423,0.0955 10.11969,-0.1031 10.21587,-0.25188 0.17085,-0.26429 12.36715,-0.3169 13.06071,-0.0563 0.4471,0.16797 10.69785,0.13911 10.91847,-0.0307 0.11589,-0.0892 0.10907,-28.743951 -0.007,-28.854801 -0.0713,-0.0682 -4.94327,-0.11563 -10.82652,-0.10538 -5.88326,0.0102 -10.84349,-0.0693 -11.02274,-0.17677 -0.4088,-0.24509 -0.16593,-0.91021 0.33237,-0.91021 0.20425,0 0.31091,0.0935 0.23702,0.20783 -0.0739,0.1143 -0.0268,0.27136 0.10462,0.34902 0.13143,0.0777 0.30201,-0.0159 0.37906,-0.20782 0.0949,-0.23635 0.44278,-0.34903 1.07772,-0.34903 h 0.93764 l -0.31304,0.36063 -0.31305,0.36062 0.45959,-0.0948 c 0.25277,-0.0522 0.43331,-0.21443 0.4012,-0.36062 -0.0321,-0.1462 0.16465,-0.26581 0.43723,-0.26581 0.41406,0 0.44778,0.0551 0.20491,0.33488 -0.23807,0.27426 -0.22212,0.33487 0.0882,0.33487 0.20837,0 0.37885,-0.15069 0.37885,-0.33487 0,-0.19248 0.21074,-0.33488 0.49561,-0.33488 0.41406,0 0.44777,0.0551 0.20491,0.33488 -0.23808,0.27426 -0.22212,0.33487 0.0882,0.33487 0.20837,0 0.37886,-0.15069 0.37886,-0.33487 0,-0.18418 0.16886,-0.33488 0.37524,-0.33488 0.23761,0 0.32595,0.12282 0.24083,0.33488 -0.0739,0.18418 -0.0293,0.33487 0.0991,0.33487 0.12843,0 0.294,-0.15069 0.36792,-0.33487 0.0739,-0.18418 0.35959,-0.33168 0.63482,-0.32778 l 0.5004,0.007 -0.45326,0.32778 -0.45327,0.32777 h 0.40222 c 0.22122,0 0.4627,-0.15069 0.53663,-0.33487 0.0739,-0.18418 0.27748,-0.33488 0.45235,-0.33488 0.18669,0 0.26246,0.13825 0.18354,0.33488 -0.0739,0.18418 -0.0148,0.33487 0.13142,0.33487 0.1462,0 0.3263,-0.15069 0.40022,-0.33487 0.0739,-0.18418 0.29365,-0.33488 0.48828,-0.33488 0.2993,0 0.3056,0.0556 0.0408,0.36063 l -0.31305,0.36062 0.45959,-0.0948 c 0.25277,-0.0522 0.43331,-0.21443 0.4012,-0.36062 -0.0408,-0.18592 0.44148,-0.26581 1.60477,-0.26581 h 1.66314 l -0.29069,0.33488 c -0.23808,0.27426 -0.22212,0.33487 0.0882,0.33487 0.20837,0 0.37885,-0.15069 0.37885,-0.33487 0,-0.18418 0.15432,-0.33488 0.34293,-0.33488 0.2089,0 0.2904,0.13089 0.20853,0.33488 -0.0851,0.21205 0.003,0.33487 0.24083,0.33487 0.20639,0 0.37525,-0.15069 0.37525,-0.33487 0,-0.18418 0.16886,-0.33488 0.37524,-0.33488 0.24532,0 0.32645,0.12156 0.23433,0.3511 -0.10076,0.25103 -0.0247,0.32678 0.2669,0.2658 0.2243,-0.0469 0.38155,-0.2049 0.34944,-0.35109 -0.0321,-0.1462 0.14848,-0.26581 0.40131,-0.26581 0.31267,0 0.4167,0.1071 0.32528,0.33488 -0.0739,0.18418 -0.0148,0.33487 0.13141,0.33487 0.1462,0 0.3263,-0.15069 0.40023,-0.33487 0.0739,-0.18418 0.23948,-0.33488 0.36791,-0.33488 0.12843,0 0.17302,0.1507 0.0991,0.33488 -0.0819,0.20398 -3.7e-4,0.33487 0.20852,0.33487 0.18862,0 0.34294,-0.15069 0.34294,-0.33487 0,-0.18418 0.16886,-0.33488 0.37524,-0.33488 0.24532,0 0.32645,0.12156 0.23433,0.3511 -0.10076,0.25103 -0.0247,0.32678 0.2669,0.2658 0.2243,-0.0469 0.38155,-0.2049 0.34944,-0.35109 -0.0321,-0.1462 0.11048,-0.26581 0.31687,-0.26581 0.23761,0 0.32594,0.12282 0.24083,0.33488 -0.0819,0.20398 -3.7e-4,0.33487 0.20853,0.33487 0.18861,0 0.34293,-0.15069 0.34293,-0.33487 0,-0.18418 0.16886,-0.33488 0.37524,-0.33488 0.23762,0 0.32595,0.12282 0.24084,0.33488 -0.0739,0.18418 -0.0363,0.33487 0.0835,0.33487 0.56701,0 0.70141,-1.10872 0.70141,-5.78598 v -4.92233 l -5.87927,-0.0597 -5.87927,-0.0596 -0.0287,-2.56737 c -0.0158,-1.41206 -0.0496,-6.00821 -0.0752,-10.21367 l -0.0464,-7.6463 -0.52539,-0.0142 -0.52539,-0.0142 0.49649,-0.19168 c 0.37778,-0.14585 0.46898,-0.3293 0.38142,-0.76722 -0.0928,-0.46394 -0.0242,-0.57554 0.35361,-0.57554 0.65532,0 0.66882,0.21005 0.73145,11.37643 0.0299,5.33614 0.10583,9.78159 0.16867,9.87879 0.0628,0.0972 2.735,0.17673 5.93814,0.17673 h 5.8239 v 5.67969 c 0,3.54564 0.0877,5.73153 0.23351,5.81767 0.15185,0.0897 0.23351,5.28589 0.23351,14.859271 v 14.72129 h -0.42032 c -0.23117,0 -0.5517,0.12558 -0.71229,0.27906 -0.32015,0.30599 -13.54567,0.43861 -37.1902,0.37293 -9.00919,-0.025 -12.56548,0.0352 -12.68154,0.21474 -0.22283,0.3447 -11.71594,0.35099 -11.93861,0.007 -0.11117,-0.17198 -4.02212,-0.22091 -13.38208,-0.16744 -7.27374,0.0416 -14.74167,0.003 -16.59537,-0.0852 -2.16305,-0.10316 -3.4715,-0.0805 -3.65269,0.0633 -0.18168,0.14416 -4.98924,0.22206 -13.488042,0.21856 -8.477989,-0.003 -13.256933,0.0738 -13.348746,0.21579 -0.186384,0.28833 -1.446566,0.28678 -1.633248,-0.002 -0.227186,-0.35145 -9.681175,-0.29758 -9.795435,0.0558 -0.06534,0.2021 -0.323948,8.21898 -0.360075,11.16248 -0.0011,0.0921 -6.901678,0.16743 -15.334551,0.16743 H 43.084712 Z m 19.120617,11.10405 c 0.02235,-2.79341 0.05639,-5.38032 0.07563,-5.74868 0.01924,-0.36836 0.116781,-5.5924 0.216748,-11.60897 0.129733,-7.807991 0.258472,-10.988901 0.44976,-11.112751 0.147401,-0.0954 2.269477,-0.14566 4.715726,-0.11162 l 4.447725,0.0619 0.64148,0.40236 c 0.352814,0.2213 0.728565,0.62315 0.835002,0.893 0.106437,0.26985 0.252525,2.80127 0.324641,5.625371 l 0.131119,5.13474 h 2.817536 2.817536 l -2.52e-4,4.63243 -2.51e-4,4.63243 h 2.459154 c 1.970507,0 2.485862,0.0665 2.593562,0.33488 l 0.134408,0.33487 h 13.037643 c 8.131201,0 13.090091,-0.0811 13.177011,-0.21559 0.19754,-0.30559 -0.37251,-1.26761 -3.52087,-5.9419 -0.65491,-0.97233 -1.39046,-2.11949 -1.63455,-2.54924 -0.2441,-0.42976 -0.50369,-0.83161 -0.57689,-0.893 -0.0732,-0.0614 -0.79695,-1.11625 -1.60835,-2.34412 -0.8114,-1.22787 -1.84791,-2.76901 -2.30335,-3.42475 -0.69796,-1.00491 -0.78463,-1.25876 -0.55159,-1.61553 0.15315,-0.23445 0.27649,-1.221371 0.27649,-2.212301 v -1.78903 h -4.6245 -4.624498 l -2.239638,-4.29755 c -5.912352,-11.34499 -5.842198,-11.19899 -5.576746,-11.60595 0.139073,-0.21321 0.252859,-1.20412 0.252859,-2.20202 v -1.81436 l -1.926434,0.0659 c -1.059539,0.0363 -3.620397,0.0477 -5.690795,0.0253 l -3.76436,-0.0406 -2.184478,-3.1813 c -1.201462,-1.74972 -2.265804,-3.2148 -2.365205,-3.25573 -0.0994,-0.0409 -0.180727,-0.16723 -0.180727,-0.28067 0,-0.16363 -3.049656,-4.72037 -3.79557,-5.67127 -0.09691,-0.12354 -0.607201,-0.85605 -1.13397,-1.6278 l -0.957762,-1.40317 0.03533,-2.78783 0.03533,-2.78784 -4.244788,0.0609 -4.244788,0.0609 -1.507219,2.79062 c -3.623035,6.70806 -6.256737,11.59439 -6.918976,12.83685 -0.39268,0.73672 -0.823789,1.4133 -0.95802,1.50351 -0.134231,0.0902 -0.99728,0.16556 -1.917886,0.16744 -2.516242,0.005 -2.412547,-0.11118 -2.412547,2.7063 0,1.70401 0.08154,2.43186 0.272425,2.43186 0.149833,0 0.214224,0.0556 0.143089,0.12365 -0.07113,0.068 -3.398612,0.11572 -7.394395,0.10602 l -7.26506,-0.0176 v 1.7916 c 0,1.24145 -0.08577,1.79161 -0.279314,1.79161 -0.153622,0 0.07667,0.35115 0.511756,0.78032 l 0.791068,0.78033 -0.590157,0.61498 c -0.501028,0.52211 -0.574766,0.77515 -0.488243,1.67543 0.105592,1.09869 0.235263,1.24518 0.704819,0.79625 0.444979,-0.42543 0.544547,-0.10654 0.470529,1.50697 l -0.06967,1.51885 -0.419757,-0.40277 c -0.230867,-0.22153 -0.453282,-0.3657 -0.494256,-0.32039 -0.182405,0.20173 -0.354547,6.13916 -0.185162,6.38653 0.143916,0.21017 2.368398,0.29041 9.283987,0.33487 l 9.094722,0.0585 -0.03273,6.139361 c -0.018,3.37665 -0.113103,10.88621 -0.211335,16.6879 l -0.178605,10.54855 h 9.142987 9.142988 z m 1.944169,4.85568 c -0.07937,-0.12279 -0.453348,-0.22325 -0.831056,-0.22325 -0.377707,0 -0.686741,0.10046 -0.686741,0.22325 0,0.12278 0.373976,0.22325 0.831056,0.22325 0.494577,0 0.772626,-0.0904 0.686741,-0.22325 z m 8.938839,-2.50704 -0.06556,-2.73028 -5.020382,0.0726 c -2.76121,0.0399 -5.099202,0.11917 -5.195536,0.17609 -0.09633,0.0569 -0.175154,0.95949 -0.175154,2.00571 v 1.90222 l 1.513672,-0.15498 c 1.762532,-0.18046 3.156473,0.0127 3.156473,0.43734 0,0.37953 -1.258812,0.88598 -1.840589,0.74053 -0.243532,-0.0609 -0.585766,-0.0241 -0.760519,0.0818 -0.184574,0.11181 1.520157,0.1939 4.067715,0.19589 l 4.385448,0.003 z m 0.03869,-3.44336 c 0.05734,-0.0499 0.1491,-1.2932 0.203911,-2.76299 l 0.09966,-2.67234 h -3.181128 c -1.965081,0 -3.181128,0.0853 -3.181128,0.22325 0,0.12279 0.210156,0.22325 0.467014,0.22325 0.713968,0 0.557948,0.32234 -0.358183,0.74002 -0.917197,0.41817 -2.105238,0.49627 -2.32715,0.15298 -0.07937,-0.12279 -0.545931,-0.22325 -1.036795,-0.22325 h -0.89248 l -0.168544,2.14931 c -0.133026,1.69637 -0.101971,2.1918 0.147362,2.3509 0.298103,0.19023 9.997938,0.0184 10.227465,-0.18113 z m -8.393762,-5.34715 c 0,-0.0485 -0.420313,-0.0882 -0.934029,-0.0882 -0.513715,0 -0.934028,0.078 -0.934028,0.17334 0,0.0953 0.420313,0.13501 0.934028,0.0882 0.513716,-0.0468 0.934029,-0.12484 0.934029,-0.17333 z m 2.673285,-0.81374 c 0.04953,-0.15349 0.146931,-3.01666 0.216454,-6.36261 l 0.126404,-6.08355 h -2.300364 c -1.882223,0 -2.326128,0.0642 -2.4421,0.35313 -0.07796,0.19422 -0.141736,3.0574 -0.141736,6.36261 v 6.00948 h 2.225647 c 1.57682,0 2.251898,-0.0813 2.315695,-0.27906 z m 5.848904,0.0194 c 0.07539,-0.0721 0.178581,-9.67447 0.128558,-11.96324 l -0.01098,-0.50231 h -2.539391 -2.539391 l -0.145942,0.69765 c -0.20777,0.99321 -0.181526,11.69486 0.02919,11.90239 0.172294,0.16968 4.890508,0.0447 5.077956,-0.13449 z m 4.49584,0.0493 1.692927,-0.0129 v -4.47208 -4.47207 l -2.74371,0.0629 -2.74371,0.0629 -0.06356,4.33713 c -0.04742,3.23586 0.009,4.38002 0.222367,4.50608 0.157262,0.0929 0.658718,0.13113 1.114347,0.0849 0.455628,-0.0462 1.590233,-0.0898 2.521343,-0.0969 z m 130.588923,-2.4686 c 0,-0.12279 -0.10508,-0.22325 -0.23351,-0.22325 -0.12843,0 -0.2335,0.10046 -0.2335,0.22325 0,0.12278 0.10507,0.22325 0.2335,0.22325 0.12843,0 0.23351,-0.10047 0.23351,-0.22325 z m 0,-0.893 c 0,-0.12279 -0.10508,-0.22325 -0.23351,-0.22325 -0.12843,0 -0.2335,0.10046 -0.2335,0.22325 0,0.12278 0.10507,0.22325 0.2335,0.22325 0.12843,0 0.23351,-0.10047 0.23351,-0.22325 z m 0,-0.893 c 0,-0.12279 -0.10508,-0.22325 -0.23351,-0.22325 -0.12843,0 -0.2335,0.10046 -0.2335,0.22325 0,0.12279 0.10507,0.22325 0.2335,0.22325 0.12843,0 0.23351,-0.10046 0.23351,-0.22325 z m -0.0924,-2.17203 c -0.23736,-0.22694 -0.43321,0.11472 -0.23846,0.416 0.14712,0.22758 0.20212,0.22776 0.28121,9e-4 0.0541,-0.15511 0.0348,-0.34272 -0.0428,-0.4169 z m 0.0924,-0.73021 c 0,-0.12279 -0.10508,-0.22325 -0.23351,-0.22325 -0.12843,0 -0.2335,0.10046 -0.2335,0.22325 0,0.12278 0.10507,0.22324 0.2335,0.22324 0.12843,0 0.23351,-0.10046 0.23351,-0.22324 z m 0,-0.893 c 0,-0.12279 -0.10508,-0.22325 -0.23351,-0.22325 -0.12843,0 -0.2335,0.10046 -0.2335,0.22325 0,0.12278 0.10507,0.22325 0.2335,0.22325 0.12843,0 0.23351,-0.10047 0.23351,-0.22325 z m -36.19362,-1.67437 c 0,-0.18419 -0.10178,-0.33488 -0.22618,-0.33488 -0.1244,0 -0.16569,0.15069 -0.0918,0.33488 0.0739,0.18418 0.1757,0.33487 0.22618,0.33487 0.0505,0 0.0918,-0.15069 0.0918,-0.33487 z m 36.10119,-0.49767 c -0.23736,-0.22693 -0.43321,0.11473 -0.23846,0.416 0.14712,0.22759 0.20212,0.22776 0.28121,9e-4 0.0541,-0.15511 0.0348,-0.34271 -0.0428,-0.4169 z m 0.0924,-0.73021 c 0,-0.12278 -0.10508,-0.22325 -0.23351,-0.22325 -0.12843,0 -0.2335,0.10047 -0.2335,0.22325 0,0.12279 0.10507,0.22325 0.2335,0.22325 0.12843,0 0.23351,-0.10046 0.23351,-0.22325 z m -36.10918,-1.67437 c -0.0739,-0.18418 -0.22494,-0.33487 -0.3356,-0.33487 -0.11066,0 -0.14071,0.15069 -0.0668,0.33487 0.0739,0.18418 0.22495,0.33488 0.3356,0.33488 0.11066,0 0.14072,-0.1507 0.0668,-0.33488 z m 36.01675,-0.49766 c -0.23736,-0.22694 -0.43321,0.11473 -0.23846,0.416 0.14712,0.22758 0.20212,0.22776 0.28121,9e-4 0.0541,-0.15511 0.0348,-0.34272 -0.0428,-0.4169 z m -35.98444,-0.50696 c -0.0794,-0.12279 -0.24939,-0.22325 -0.37782,-0.22325 -0.12843,0 -0.16856,0.10046 -0.0892,0.22325 0.0794,0.12279 0.24939,0.22325 0.37782,0.22325 0.12843,0 0.16857,-0.10046 0.0892,-0.22325 z m 36.07687,-0.22325 c 0,-0.12279 -0.10508,-0.22325 -0.23351,-0.22325 -0.12843,0 -0.2335,0.10046 -0.2335,0.22325 0,0.12279 0.10507,0.22325 0.2335,0.22325 0.12843,0 0.23351,-0.10046 0.23351,-0.22325 z m -136.776865,-0.44351 0.408638,-0.003 v -2.30202 -2.302031 l -0.482326,-0.49497 -0.482326,-0.49497 -3.078659,0.0622 -3.07866,0.0622 -0.06549,2.864431 -0.06549,2.86443 3.217842,-0.12663 c 1.769813,-0.0697 3.401728,-0.12798 3.626479,-0.12963 z m -4.214806,-1.38714 c -0.154114,-0.14734 -0.280208,-0.57933 -0.280208,-0.95997 0,-0.876361 0.367669,-1.227871 1.28429,-1.227871 0.91662,0 1.284289,0.35151 1.284289,1.227871 0,0.87635 -0.367669,1.22787 -1.284289,1.22787 -0.39813,0 -0.849967,-0.12055 -1.004082,-0.2679 z m 140.899241,-0.34138 c -0.23736,-0.22694 -0.43321,0.11472 -0.23846,0.416 0.14712,0.22758 0.20212,0.22776 0.28121,9e-4 0.0541,-0.15511 0.0348,-0.34272 -0.0428,-0.4169 z M 102.23759,98.603569 c 0,-1.11624 -0.0961,-1.89762 -0.23351,-1.89762 -0.25886,0 -0.33152,3.403871 -0.0778,3.646411 0.28927,0.27656 0.31134,0.15256 0.31134,-1.748791 z m 0.93403,0 c 0,-1.11624 -0.0962,-1.89762 -0.23351,-1.89762 -0.25886,0 -0.33152,3.403871 -0.0778,3.646411 0.28927,0.27656 0.31134,0.15256 0.31134,-1.748791 z m 0.93403,0 c 0,-1.11624 -0.0961,-1.89762 -0.23351,-1.89762 -0.25886,0 -0.33152,3.403871 -0.0778,3.646411 0.28927,0.27656 0.31134,0.15256 0.31134,-1.748791 z m 104.37773,1.674371 c 0,-0.12278 -0.10508,-0.22324 -0.23351,-0.22324 -0.12843,0 -0.2335,0.10046 -0.2335,0.22324 0,0.12279 0.10507,0.22325 0.2335,0.22325 0.12843,0 0.23351,-0.10046 0.23351,-0.22325 z m 0,-0.892991 c 0,-0.12279 -0.10508,-0.22325 -0.23351,-0.22325 -0.12843,0 -0.2335,0.10046 -0.2335,0.22325 0,0.12278 0.10507,0.22325 0.2335,0.22325 0.12843,0 0.23351,-0.10047 0.23351,-0.22325 z m -51.88074,-3.73943 c 0.0999,-0.67244 1.44318,-0.74662 1.44318,-0.0797 0,0.23244 0.16621,0.48359 0.36936,0.55812 0.20314,0.0745 1.98947,0.13551 3.96962,0.13551 h 3.60026 v -2.81725 -2.81724 l -2.21831,0.0928 -2.21832,0.0928 v -7.11613 -7.11613 l -1.80968,0.12593 c -0.99533,0.0693 -2.09865,0.11816 -2.45183,0.10867 -0.35318,-0.01 -3.2691,-0.0173 -6.47983,-0.0173 -3.21072,0 -6.15291,0 -6.5382,0 -0.38529,0 -3.30121,-0.003 -6.47982,-0.006 -3.17862,-0.004 -6.2881,0.0668 -6.90995,0.15633 -0.73461,0.10571 -1.22126,0.0761 -1.38937,-0.0847 -0.35427,-0.33871 -10.24561,-0.34358 -10.59951,-0.005 -0.41779,0.39944 -1.35793,0.1545 -1.35793,-0.35377 v -0.4465 l -5.66255,-0.0598 -5.66255,-0.0598 v 0.43729 c 0,0.24051 -0.11105,0.50291 -0.24678,0.58311 -0.39363,0.23259 -1.38777,-0.0959 -1.38777,-0.4586 0,-0.18184 -0.10508,-0.33062 -0.23351,-0.33062 -0.12843,0 -0.2335,0.10392 -0.2335,0.23093 0,0.15278 -1.73521,0.22287 -5.12773,0.20711 -2.820248,-0.0131 -5.30402,0.0705 -5.519493,0.18579 -0.215473,0.11529 -1.32304,0.15885 -2.46126,0.0968 l -2.069492,-0.11281 v 1.92859 1.92858 h 0.700522 c 0.385286,0 0.700521,0.10047 0.700521,0.22325 0,0.13531 -1.011864,0.22325 -2.568579,0.22325 -1.905879,0 -2.565345,0.072 -2.556042,0.27907 0.0069,0.15348 1.5568,3.23673 3.444231,6.85165 l 3.431694,6.5726 1.163411,0.0133 c 0.971952,0.0111 1.178142,0.0867 1.252926,0.45976 0.04923,0.24557 0.208707,0.51835 0.354386,0.60617 0.145679,0.0878 2.392706,0.15563 4.993393,0.1507 l 4.728522,-0.009 0.0211,-1.15533 c 0.0116,-0.63542 0.0549,-3.81757 0.0963,-7.07143 0.0413,-3.25386 0.0844,-5.99845 0.0956,-6.09908 0.0113,-0.10063 0.25692,-0.15086 0.54588,-0.11162 l 0.52539,0.0713 0.11676,6.92073 c 0.0642,3.80641 0.20176,7.04632 0.30566,7.1998 0.14226,0.21014 1.53682,0.27906 5.64631,0.27906 h 5.4574 l 0.0746,-0.50231 c 0.11,-0.74045 1.29234,-0.84589 1.39924,-0.12479 l 0.0764,0.51548 h 5.72093 5.72093 l 0.0746,-0.50231 c 0.0575,-0.38724 0.22765,-0.50231 0.74266,-0.50231 0.515,0 0.68513,0.11507 0.74265,0.50231 l 0.0746,0.50231 5.76253,0.0597 5.76254,0.0597 0.0752,-0.50617 c 0.10596,-0.71373 1.21073,-0.72106 1.31663,-0.009 l 0.0739,0.49744 4.36269,0.0643 c 2.39947,0.0353 4.99315,0.0627 5.76373,0.0607 l 1.40104,-0.004 z m 10.03232,-4.77446 c -0.23599,-0.13983 -0.31368,0.37422 -0.36577,2.42023 -0.0491,1.929 0.011,2.64348 0.23351,2.77531 0.236,0.13983 0.31369,-0.37422 0.36577,-2.42023 0.0491,-1.929 -0.011,-2.64347 -0.23351,-2.77531 z m 41.84842,4.71864 c 0,-0.12278 -0.10508,-0.22325 -0.23351,-0.22325 -0.12843,0 -0.2335,0.10047 -0.2335,0.22325 0,0.12279 0.10507,0.22325 0.2335,0.22325 0.12843,0 0.23351,-0.10046 0.23351,-0.22325 z m -40.54067,-2.78313 c 0.0149,-1.04768 -0.0516,-1.90493 -0.14796,-1.90499 -0.0963,-6e-5 -0.17514,0.92079 -0.17514,2.04634 0,1.12555 0.0666,1.98279 0.14797,1.90499 0.0814,-0.0778 0.16019,-0.99866 0.17513,-2.04634 z m 0.84444,0.091 c 0,-1.29143 -0.0844,-1.97255 -0.23351,-1.88444 -0.12843,0.0759 -0.2335,0.98597 -0.2335,2.02242 0,1.10746 0.0963,1.88445 0.2335,1.88445 0.13849,0 0.23351,-0.82298 0.23351,-2.02243 z m 0.88442,-0.0426 c -0.0385,-1.18508 -0.16665,-2.06506 -0.30065,-2.06506 -0.134,0 -0.26212,0.87998 -0.30065,2.06506 -0.0571,1.75767 -0.0124,2.06506 0.30065,2.06506 0.31304,0 0.35779,-0.30739 0.30065,-2.06506 z m 38.81181,1.84181 c 0,-0.12279 -0.10508,-0.22325 -0.23351,-0.22325 -0.12843,0 -0.2335,0.10046 -0.2335,0.22325 0,0.12278 0.10507,0.22325 0.2335,0.22325 0.12843,0 0.23351,-0.10047 0.23351,-0.22325 z m 0,-4.68824 c 0,-0.12279 -0.10508,-0.22325 -0.23351,-0.22325 -0.12843,0 -0.2335,0.10046 -0.2335,0.22325 0,0.12278 0.10507,0.22325 0.2335,0.22325 0.12843,0 0.23351,-0.10047 0.23351,-0.22325 z m -38.8255,-6.41843 -0.0534,-6.41842 -1.05079,-0.19555 c -0.57793,-0.10756 -2.20664,-0.20802 -3.61936,-0.22325 l -2.56858,-0.0277 -0.0618,6.64167 -0.0618,6.64168 h 3.73467 3.73467 z m 38.8255,4.63243 c 0,-0.12279 -0.10508,-0.22325 -0.23351,-0.22325 -0.12843,0 -0.2335,0.10046 -0.2335,0.22325 0,0.12279 0.10507,0.22325 0.2335,0.22325 0.12843,0 0.23351,-0.10046 0.23351,-0.22325 z m -37.59466,-0.893 c 0,-0.12279 -0.0989,-0.22325 -0.21973,-0.22325 -0.12085,0 -0.28467,0.10046 -0.36404,0.22325 -0.0794,0.12279 0.0195,0.22325 0.21972,0.22325 0.20023,0 0.36405,-0.10046 0.36405,-0.22325 z m 1.05078,0 c 0.0794,-0.12279 0.0392,-0.22325 -0.0892,-0.22325 -0.12843,0 -0.29845,0.10046 -0.37783,0.22325 -0.0794,0.12279 -0.0392,0.22325 0.0892,0.22325 0.12842,0 0.29845,-0.10046 0.37782,-0.22325 z m 15.76174,0 c 0,-0.12279 -0.10508,-0.22325 -0.23351,-0.22325 -0.12843,0 -0.23351,0.10046 -0.23351,0.22325 0,0.12279 0.10508,0.22325 0.23351,0.22325 0.12843,0 0.23351,-0.10046 0.23351,-0.22325 z m 9.22353,0 c 0.0794,-0.12279 -0.0195,-0.22325 -0.21972,-0.22325 -0.20023,0 -0.36405,0.10046 -0.36405,0.22325 0,0.12279 0.0989,0.22325 0.21973,0.22325 0.12085,0 0.28467,-0.10046 0.36404,-0.22325 z m 1.05079,0 c 0,-0.12279 -0.0989,-0.22325 -0.21973,-0.22325 -0.12085,0 -0.28467,0.10046 -0.36404,0.22325 -0.0794,0.12279 0.0195,0.22325 0.21972,0.22325 0.20023,0 0.36405,-0.10046 0.36405,-0.22325 z m -92.23536,-0.66975 c 0,-0.12278 -0.10508,-0.22325 -0.23351,-0.22325 -0.12843,0 -0.23351,0.10047 -0.23351,0.22325 0,0.12279 0.10508,0.22325 0.23351,0.22325 0.12843,0 0.23351,-0.10046 0.23351,-0.22325 z m 0,-0.893 c 0,-0.12278 -0.10508,-0.22325 -0.23351,-0.22325 -0.12843,0 -0.23351,0.10047 -0.23351,0.22325 0,0.12279 0.10508,0.22325 0.23351,0.22325 0.12843,0 0.23351,-0.10046 0.23351,-0.22325 z m 0,-2.90224 c 0,-0.12279 -0.10508,-0.22325 -0.23351,-0.22325 -0.12843,0 -0.23351,0.10046 -0.23351,0.22325 0,0.12279 0.10508,0.22325 0.23351,0.22325 0.12843,0 0.23351,-0.10046 0.23351,-0.22325 z m -20.37801,-5.19729 c -0.04897,-0.51814 -0.08846,-0.0379 -0.08775,1.06717 7.11e-4,1.10509 0.04078,1.52902 0.08904,0.94208 0.04826,-0.58695 0.04768,-1.49111 -0.0013,-2.00925 z m 0.763398,2.17025 c 0,-0.32402 -0.101072,-0.51158 -0.233507,-0.43333 -0.128429,0.0759 -0.233508,0.33297 -0.233508,0.5713 0,0.23833 0.105079,0.43333 0.233508,0.43333 0.128429,0 0.233507,-0.25709 0.233507,-0.5713 z m 0.86234,-0.26164 c -0.0592,-0.21722 -0.111538,-0.0935 -0.116296,0.27481 -0.0048,0.36836 0.04368,0.54608 0.107644,0.39494 0.06396,-0.15115 0.06786,-0.45254 0.0087,-0.66975 z m 0.772211,-0.82826 c 0,-0.91366 -0.105079,-1.72329 -0.233508,-1.79917 -0.148293,-0.0876 -0.233507,0.51859 -0.233507,1.66119 0,1.05062 0.09715,1.79918 0.233507,1.79918 0.134751,0 0.233508,-0.70257 0.233508,-1.6612 z m 0.404784,-0.84446 c -0.04933,-0.52509 -0.09038,-0.15101 -0.09123,0.83128 -8.49e-4,0.9823 0.03951,1.41192 0.08969,0.95472 0.05017,-0.45721 0.05087,-1.26091 0.0015,-1.786 z m -2.039335,0.16153 c 0,-0.55254 -0.09334,-1.00462 -0.207429,-1.00462 -0.114086,0 -0.201078,0.45208 -0.193317,1.00462 0.0078,0.55255 0.101104,1.00463 0.207429,1.00463 0.106324,0 0.193317,-0.45208 0.193317,-1.00463 z m 0.868082,-0.49924 c -0.05367,-0.33935 -0.09902,-0.11469 -0.100774,0.49924 -0.0018,0.61394 0.04216,0.89159 0.09759,0.61701 0.05542,-0.27458 0.05686,-0.77689 0.0032,-1.11625 z m -46.869008,-1.59774 c 0,-2.01159 -0.06383,-2.45528 -0.369359,-2.56737 -0.203147,-0.0745 -3.176862,-0.13551 -6.608254,-0.13551 -4.541131,0 -6.315147,0.0729 -6.519104,0.2679 -0.298716,0.28559 -0.408547,4.44647 -0.124537,4.71801 0.08562,0.0819 3.185428,0.14883 6.888462,0.14883 h 6.732792 z m 39.229216,-0.47366 v -0.44977 l 7.063594,0.0591 7.063594,0.0591 v 0.33182 c 0,0.1825 0.183887,0.36567 0.408638,0.40705 0.317161,0.0584 0.408637,-0.0774 0.408637,-0.60662 0,-0.91625 0.257108,-0.95977 5.160059,-0.8735 l 4.06348,0.0715 0.0732,0.72556 c 0.0606,0.60093 0.1709,0.72556 0.64214,0.72556 0.38621,0 0.56898,-0.12549 0.56898,-0.39068 v -0.39069 h 7.00801 7.00801 l 0.12969,0.39069 c 0.19576,0.58966 0.52482,0.46886 0.60811,-0.22325 l 0.0739,-0.61394 4.84527,-0.0603 c 3.88853,-0.0484 4.84528,-0.002 4.84528,0.23423 0,0.2052 0.24796,0.2669 0.81727,0.20336 l 0.81728,-0.0912 v -1.09183 -1.09182 h -0.82677 -0.82677 l 0.0309,-7.13362 c 0.0338,-7.79961 -0.003,-7.60085 1.38915,-7.60085 0.39614,0 0.46702,-0.14883 0.46702,-0.98074 0,-0.66582 -0.11247,-1.022 -0.35027,-1.10924 -0.19264,-0.0707 -0.35026,-0.28934 -0.35026,-0.48591 0,-0.24295 -0.16825,-0.33456 -0.52539,-0.28607 -0.40268,0.0547 -0.54248,0.2408 -0.59856,0.7969 -0.0402,0.39906 -0.14532,0.73723 -0.23351,0.75149 -0.59301,0.0959 -9.05312,0.13332 -9.30429,0.0412 -0.17666,-0.0648 -0.31309,-0.44495 -0.31309,-0.87236 0,-0.41661 -0.10507,-0.75748 -0.2335,-0.75748 -0.12843,0 -0.23351,0.20092 -0.23351,0.4465 v 0.44649 h -6.99362 -6.99361 l -0.20944,-0.35781 c -0.32426,-0.55396 -1.08644,-0.29236 -1.17055,0.40177 -0.0399,0.32904 -0.23916,0.62957 -0.44286,0.66784 -0.2037,0.0383 -2.29891,0.0402 -4.656028,0.004 l -4.285663,-0.0653 v -0.66022 c 0,-0.70289 -0.543083,-0.92798 -0.784964,-0.32534 -0.114165,0.28444 -0.83007,0.32734 -4.753504,0.28484 l -4.619097,-0.05 3.911247,-0.067 c 3.260862,-0.0559 3.911246,-0.12178 3.911246,-0.39647 0,-0.2803 -0.753275,-0.32947 -5.04764,-0.32947 h -5.047668 l 0.116986,0.4277 0.116987,0.4277 -1.315665,-0.11134 c -0.723616,-0.0612 -1.447013,-0.15009 -1.607549,-0.19745 -0.215334,-0.0635 -0.291884,-0.90645 -0.291884,-3.21406 v -3.12797 l -0.891581,-0.43487 c -1.712957,-0.83549 -3.075438,-2.77329 -3.075438,-4.37407 0,-1.55971 1.40257,-3.55812 3.067034,-4.36997 l 0.917895,-0.4477 -0.06733,-1.94453 -0.06733,-1.94453 -3.969623,-0.1178 c -2.183293,-0.0648 -7.069432,-0.11502 -10.858087,-0.11162 l -6.888463,0.006 -0.116754,2.12087 c -0.08017,1.45626 -0.249949,2.35427 -0.541799,2.86568 -0.580889,1.0179 -1.084642,3.41967 -1.084642,5.17131 0,1.82774 0.53649,4.28708 1.153203,5.28641 0.361081,0.5851 0.473238,1.16065 0.473238,2.42846 v 1.66161 h 5.48742 5.48742 v 0.33487 c 0,0.18418 -0.157617,0.33487 -0.35026,0.33487 -0.290115,0 -0.350261,0.4217 -0.350261,2.45575 0,2.0915 0.05484,2.45574 0.36972,2.45574 0.203345,0 0.325395,0.12558 0.271221,0.27907 -0.06689,0.18952 -0.728686,0.29092 -2.062647,0.31602 -1.080282,0.0203 -2.044031,0.0454 -2.141665,0.0558 -0.15,0.0159 1.167791,2.10749 1.770114,2.80947 0.105354,0.12279 1.972741,2.81016 4.149747,5.97193 l 3.958193,5.74867 h 2.913846 2.913847 z m 13.776927,-8.02053 c 0,-3.58078 0.08405,-5.59442 0.233507,-5.59442 0.149303,0 0.233508,1.96765 0.233508,5.45644 0,3.39681 -0.08814,5.50852 -0.233508,5.59442 -0.153298,0.0906 -0.233507,-1.78368 -0.233507,-5.45644 z m -1.167536,8.13543 v -0.33487 h -5.020406 -5.020405 v 0.33487 0.33487 h 5.020405 5.020406 z m 10.930421,-0.16744 0.0787,-0.39068 h -3.98674 c -3.317475,0 -3.986745,0.0541 -3.986745,0.32203 0,0.38492 0.79398,0.45934 4.900492,0.45934 h 2.915683 z m 25.45248,0 0.0785,-0.39068 h -3.98674 c -3.16662,0 -3.98675,0.0612 -3.98675,0.29766 0,0.16372 0.0726,0.36704 0.16125,0.45183 0.0887,0.0848 1.8474,0.12664 3.90827,0.093 l 3.74704,-0.0611 z m -18.81148,0.11757 c -0.4174,-0.0495 -1.1004,-0.0495 -1.5178,0 -0.41739,0.0495 -0.0759,0.09 0.7589,0.09 0.83479,0 1.17629,-0.0405 0.7589,-0.09 z m 4.32771,-0.002 c -0.60573,-0.0458 -1.65651,-0.0463 -2.33507,-0.001 -0.67856,0.0452 -0.18296,0.0827 1.10133,0.0833 1.28429,5.8e-4 1.83947,-0.0364 1.23374,-0.0823 z m 2.21494,0.0174 c -0.1581,-0.0612 -0.47333,-0.0649 -0.70053,-0.008 -0.22719,0.0566 -0.0978,0.10664 0.28744,0.11119 0.38529,0.005 0.57118,-0.0418 0.41309,-0.10291 z m 14.88164,-6.43943 v -3.23712 h -0.46702 -0.46701 v 3.23712 3.23712 h 0.46701 0.46702 z m 0,-7.14398 v -3.23712 h -0.46702 -0.46701 v 3.23712 3.23712 h 0.46701 0.46702 z m -67.483594,-3.68362 c 0,-2.03405 -0.06015,-2.45575 -0.350261,-2.45575 -0.290115,0 -0.350261,0.4217 -0.350261,2.45575 0,2.03405 0.06015,2.45574 0.350261,2.45574 0.290115,0 0.350261,-0.42169 0.350261,-2.45574 z m 1.117059,0.074 c -0.04619,-1.66003 -0.154724,-2.40982 -0.358161,-2.47434 -0.221774,-0.0704 -0.291884,0.50174 -0.291884,2.38177 0,2.07484 0.05783,2.47434 0.358161,2.47434 0.303637,0 0.348072,-0.36258 0.291884,-2.38177 z m 0.867752,-0.073 c 0,-1.64643 -0.08353,-2.33337 -0.291884,-2.40026 -0.221932,-0.0713 -0.291884,0.50374 -0.291884,2.39925 0,1.89497 0.07001,2.47072 0.291884,2.40026 0.208418,-0.0662 0.291884,-0.75227 0.291884,-2.39925 z m 0.817276,-10e-4 c 0,-1.48833 -0.09199,-2.45575 -0.233507,-2.45575 -0.14152,0 -0.233508,0.96742 -0.233508,2.45575 0,1.48833 0.09199,2.45574 0.233508,2.45574 0.141519,0 0.233507,-0.96741 0.233507,-2.45574 z m 0.700522,0 c 0,-1.48833 -0.09199,-2.45575 -0.233508,-2.45575 -0.141519,0 -0.233507,0.96742 -0.233507,2.45575 0,1.48833 0.09199,2.45574 0.233507,2.45574 0.14152,0 0.233508,-0.96741 0.233508,-2.45574 z m 35.960115,-2.45616 v -0.44649 h -3.969624 -3.969623 v 0.44649 0.4465 h 3.969623 3.969624 z m 24.10962,0.25186 c 1.03443,-0.022 1.34267,-0.10675 1.34267,-0.36901 v -0.3404 l -3.77528,0.0613 c -2.61745,0.0425 -3.80304,0.14118 -3.86579,0.32165 -0.14476,0.41632 0.50283,0.44989 6.2984,0.32642 z m -12.24574,-0.41846 c -1.50167,-0.0388 -4.02355,-0.0389 -5.60417,-2.7e-4 -1.58062,0.0387 -0.35198,0.0704 2.73032,0.0706 3.08229,1.4e-4 4.37553,-0.0315 2.87385,-0.0703 z m -58.37277,-2.06589 c 0.0085,-0.85951 -0.06799,-1.56275 -0.169879,-1.56275 -0.297402,0 -0.941418,-1.55539 -1.294124,-3.12549 l -0.325978,-1.45112 -0.05426,1.00462 c -0.117825,2.18154 -0.0919,4.74206 0.05024,4.96232 0.08242,0.12772 0.06576,0.51259 -0.03704,0.85526 -0.234116,0.78046 -0.12689,0.87991 0.94871,0.87991 h 0.866947 z m 22.357413,-12.89547 c -0.257762,-0.24644 -1.702654,0.82722 -2.346272,1.74344 -1.313449,1.86977 -0.816436,4.00465 1.290056,5.54133 l 1.039693,0.75845 0.0639,-3.96841 c 0.03514,-2.18263 0.01383,-4.01629 -0.04738,-4.07481 z m -23.967427,2.67476 c 0.02339,-0.72591 0.928741,-3.21991 1.320758,-3.63834 0.227451,-0.24278 0.330205,-0.9188 0.330205,-2.17243 v -1.81998 l -0.565299,-0.13565 c -0.310914,-0.0746 -0.757497,-0.10005 -0.992406,-0.0566 l -0.427107,0.0791 -0.0212,4.56674 c -0.01166,2.51171 0.05976,4.36868 0.158718,4.12661 0.09895,-0.24208 0.1873,-0.66935 0.196327,-0.94949 z m 20.039658,-8.25073 c -0.738467,-0.0443 -1.946867,-0.0443 -2.685333,0 -0.738467,0.0443 -0.134267,0.0806 1.342666,0.0806 1.476933,0 2.081133,-0.0363 1.342667,-0.0806 z m 30.297016,63.56838 c 0.007,-0.72303 0.0675,-1.36688 0.13439,-1.43078 0.0668,-0.0639 0.11629,0.47485 0.10989,1.19722 -0.006,0.72237 -0.0669,1.36622 -0.13439,1.43078 -0.0675,0.0645 -0.11697,-0.4742 -0.10989,-1.19722 z m 79.31817,-43.47749 c -1.57479,-0.0534 -2.14992,-0.14864 -2.08057,-0.34435 0.0716,-0.20217 1.57343,-0.27048 5.94647,-0.27048 h 5.85061 l -0.21728,0.39069 -0.21729,0.39069 -3.55277,-0.0463 c -1.95402,-0.0255 -4.53215,-0.0796 -5.72917,-0.12021 z m -14.51936,-0.38423 c 0,-0.27759 0.90221,-0.33715 5.91749,-0.39068 l 5.91748,-0.0632 -0.10704,0.39069 -0.10704,0.39069 h -5.81045 c -4.95121,0 -5.81044,-0.0484 -5.81044,-0.32753 z"
       id="path1" /><ellipse
       style="fill:none;stroke-width:0.264583"
       id="Raton"
       cx="113.78833"
       cy="72.931229"
       rx="0.71600002"
       ry="0.32529542" /><ellipse
       style="fill:none;stroke-width:0.264583"
       id="Pato"
       cx="124.19778"
       cy="72.475815"
       rx="1.1059999"
       ry="0.52047265" /></g></svg>
